<?xml version="1.0" standalone="no"?>
<!DOCTYPE svg PUBLIC "-//W3C//DTD SVG 1.1//EN" "http://www.w3.org/Graphics/SVG/1.1/DTD/svg11.dtd">
<svg version="1.2" baseProfile="tiny" id="Ebene_1" xmlns="http://www.w3.org/2000/svg" xmlns:xlink="http://www.w3.org/1999/xlink" x="0px" y="0px" width="489.81201171875" height="227.1020050048828" viewBox="0 0 489.812 227.102" xml:space="preserve">
<g>
	<path fill="#3C3B36" d="M201.543,171.602h-11.564v-2.256l7.399-12.059c0.576-0.939,1.261-1.826,1.261-1.826   s-0.932,0.107-2.055,0.107h-6.249l0.712-2.551h11.126v2.336l-7.372,12.193c-0.411,0.697-1.096,1.584-1.096,1.584   s0.794-0.054,1.891-0.054h6.742L201.543,171.602z"/>
	<path fill="#3C3B36" d="M207.273,171.602v-18.584h10.523l-0.411,2.524h-6.961v5.075h5.837v2.552h-5.783v5.801h7.591v2.632H207.273z   "/>
	<path fill="#3C3B36" d="M232.131,171.602l-4.248-8.729c-1.014-2.067-2.056-4.404-2.412-5.505l-0.083,0.081   c0.137,1.557,0.165,3.518,0.192,5.156l0.11,8.996h-3.097v-18.584h3.563l4.604,9.077c0.877,1.719,1.699,3.921,1.946,4.78l0.082-0.08   c-0.082-0.94-0.274-3.6-0.274-5.291l-0.055-8.486h2.987v18.584H232.131z"/>
	<path fill="#3C3B36" d="M252.413,155.596h-4.769v16.006h-3.151v-16.006h-4.796v-2.578h13.127L252.413,155.596z"/>
	<path fill="#3C3B36" d="M265.322,171.602l-1.644-2.873c-1.315-2.283-2.192-3.572-3.234-4.593c-0.356-0.349-0.63-0.537-1.233-0.563   v8.029h-3.097v-18.584h5.782c4.248,0,6.167,2.417,6.167,5.317c0,2.659-1.754,5.103-4.714,5.103c0.685,0.35,1.945,2.148,2.932,3.706   l2.796,4.458H265.322z M260.938,155.516h-1.727v5.881h1.617c1.645,0,2.521-0.215,3.097-0.779c0.521-0.51,0.85-1.289,0.85-2.256   C264.774,156.482,263.733,155.516,260.938,155.516z"/>
	<path fill="#3C3B36" d="M279.877,171.924c-4.987,0-6.55-2.524-6.55-5.506v-13.4h3.179v12.488c0,2.846,1.042,3.786,3.371,3.786   c2.302,0,3.426-1.315,3.426-3.786v-12.488h3.151v13.374C286.454,169.803,284.042,171.924,279.877,171.924z"/>
	<path fill="#3C3B36" d="M307.777,171.602L306.9,160.08c-0.082-1.182-0.137-2.658-0.137-3.223c-0.137,0.618-0.384,1.8-0.74,2.981   l-3.452,11.763h-2.687l-3.151-11.252c-0.356-1.236-0.712-2.9-0.822-3.519c0,0.618-0.109,2.39-0.191,3.545l-0.822,11.226h-3.097   l1.727-18.584h4.193l2.904,10.527c0.438,1.558,0.604,2.605,0.713,3.169c0.082-0.563,0.329-1.826,0.685-3.115l2.987-10.581h4.193   l1.672,18.584H307.777z"/>
	<path fill="#3C3B36" d="M333.542,155.542h-6.495v5.049h5.29v2.497h-5.29v8.514h-3.151v-18.584h10.03L333.542,155.542z"/>
	<path fill="#3C3B36" d="M344.149,171.924c-4.988,0-6.55-2.524-6.55-5.506v-13.4h3.179v12.488c0,2.846,1.042,3.786,3.371,3.786   c2.302,0,3.426-1.315,3.426-3.786v-12.488h3.151v13.374C350.727,169.803,348.314,171.924,344.149,171.924z M341.601,152.266   c-1.014,0-1.836-0.859-1.836-1.88c0-1.048,0.822-1.88,1.836-1.88s1.836,0.832,1.836,1.88   C343.437,151.406,342.614,152.266,341.601,152.266z M347.328,152.238c-1.014,0-1.836-0.859-1.836-1.879   c0-1.048,0.822-1.881,1.836-1.881s1.836,0.833,1.836,1.881C349.164,151.379,348.342,152.238,347.328,152.238z"/>
	<path fill="#3C3B36" d="M365.445,171.602l-1.644-2.873c-1.315-2.283-2.192-3.572-3.234-4.593c-0.356-0.349-0.63-0.537-1.233-0.563   v8.029h-3.097v-18.584h5.782c4.248,0,6.167,2.417,6.167,5.317c0,2.659-1.754,5.103-4.714,5.103c0.685,0.35,1.945,2.148,2.932,3.706   l2.796,4.458H365.445z M361.061,155.516h-1.727v5.881h1.617c1.645,0,2.521-0.215,3.097-0.779c0.521-0.51,0.85-1.289,0.85-2.256   C364.897,156.482,363.856,155.516,361.061,155.516z"/>
	<path fill="#3C3B36" d="M200.611,208.147l-4.248-8.728c-1.014-2.068-2.056-4.404-2.412-5.506l-0.083,0.08   c0.137,1.559,0.165,3.519,0.192,5.156l0.11,8.997h-3.097v-18.584h3.563l4.604,9.077c0.877,1.719,1.699,3.921,1.946,4.78   l0.082-0.081c-0.082-0.939-0.274-3.598-0.274-5.29l-0.055-8.486h2.987v18.584H200.611z"/>
	<path fill="#3C3B36" d="M209.959,208.147v-18.584h3.233v18.584H209.959z"/>
	<path fill="#3C3B36" d="M219.223,208.147v-18.584h10.523l-0.411,2.524h-6.961v5.076h5.837v2.551h-5.783v5.801h7.591v2.632H219.223z   "/>
	<path fill="#3C3B36" d="M245.999,205.543c-1.589,1.986-3.233,2.604-6.769,2.604h-4.686v-18.584h3.946   c3.563,0,5.672,0.645,7.454,2.632c1.397,1.584,2.056,3.813,2.056,6.714C248,201.729,247.287,203.932,245.999,205.543z    M243.286,193.619c-0.877-1.182-1.863-1.611-3.563-1.611h-2v13.615h2.083c3.343,0,4.686-2.176,4.686-6.392   C244.492,196.842,244.273,194.935,243.286,193.619z"/>
	<path fill="#3C3B36" d="M253.209,208.147v-18.584h10.523l-0.411,2.524h-6.96v5.076h5.837v2.551h-5.782v5.801h7.591v2.632H253.209z"/>
	<path fill="#3C3B36" d="M277.738,208.147l-1.644-2.874c-1.315-2.282-2.192-3.571-3.234-4.592c-0.356-0.35-0.63-0.537-1.233-0.564   v8.03h-3.097v-18.584h5.782c4.248,0,6.167,2.417,6.167,5.317c0,2.658-1.754,5.103-4.714,5.103c0.685,0.349,1.945,2.148,2.932,3.706   l2.796,4.458H277.738z M273.354,192.061h-1.727v5.882h1.617c1.645,0,2.521-0.215,3.097-0.778c0.521-0.511,0.85-1.289,0.85-2.256   C277.19,193.027,276.149,192.061,273.354,192.061z"/>
	<path fill="#3C3B36" d="M295.581,208.147h-9.701v-18.584h3.207v16.032h7.016L295.581,208.147z"/>
	<path fill="#3C3B36" d="M310.438,208.147l-1.535-4.888h-6.139l-1.534,4.888h-3.262l6.221-18.61h3.646l6.057,18.61H310.438z    M305.942,192.625h-0.027c0,0-1.945,6.821-2.384,8.057h4.658C307.998,200.279,306.08,193.35,305.942,192.625z"/>
	<path fill="#3C3B36" d="M327.211,208.147l-4.248-8.728c-1.014-2.068-2.055-4.404-2.411-5.506l-0.082,0.08   c0.137,1.559,0.164,3.519,0.191,5.156l0.109,8.997h-3.097v-18.584h3.563l4.604,9.077c0.877,1.719,1.699,3.921,1.945,4.78   l0.083-0.081c-0.083-0.939-0.274-3.598-0.274-5.29l-0.055-8.486h2.987v18.584H327.211z"/>
	<path fill="#3C3B36" d="M348.014,205.543c-1.589,1.986-3.233,2.604-6.769,2.604h-4.687v-18.584h3.946   c3.563,0,5.673,0.645,7.454,2.632c1.398,1.584,2.056,3.813,2.056,6.714C350.015,201.729,349.302,203.932,348.014,205.543z    M345.301,193.619c-0.877-1.182-1.863-1.611-3.563-1.611h-2v13.615h2.082c3.344,0,4.687-2.176,4.687-6.392   C346.507,196.842,346.287,194.935,345.301,193.619z"/>
	<path fill="#3C3B36" d="M355.224,208.147v-18.584h10.523l-0.411,2.524h-6.961v5.076h5.838v2.551h-5.782v5.801h7.591v2.632H355.224z   "/>
	<path fill="#3C3B36" d="M369.86,200.225v-2.738h6.001v2.738H369.86z"/>
	<path fill="#3C3B36" d="M386.194,208.496c-2.165,0-4.357-0.563-6.221-1.664l1.206-2.363c1.699,0.967,3.206,1.53,5.125,1.53   c2.329,0,3.727-1.101,3.727-2.954c0-1.369-0.877-2.229-2.822-2.766l-2.028-0.564c-1.727-0.483-2.96-1.182-3.672-2.229   c-0.521-0.752-0.795-1.639-0.795-2.713c0-3.276,2.631-5.506,6.44-5.506c2.164,0,4.329,0.618,6.001,1.773l-1.425,2.175   c-1.754-1.021-2.96-1.423-4.467-1.423c-1.863,0-3.097,0.993-3.097,2.523c0,1.155,0.657,1.746,2.521,2.283l2.248,0.645   c2.74,0.779,4.658,2.498,4.658,5.291C393.594,205.623,391.045,208.496,386.194,208.496z"/>
	<path fill="#3C3B36" d="M409.326,192.142h-4.769v16.006h-3.151v-16.006h-4.796v-2.578h13.127L409.326,192.142z"/>
	<path fill="#3C3B36" d="M419.441,208.47c-4.987,0-6.55-2.524-6.55-5.505v-13.401h3.179v12.487c0,2.848,1.042,3.787,3.371,3.787   c2.302,0,3.426-1.316,3.426-3.787v-12.487h3.151v13.374C426.019,206.348,423.606,208.47,419.441,208.47z"/>
	<path fill="#3C3B36" d="M443.367,205.543c-1.589,1.986-3.233,2.604-6.769,2.604h-4.687v-18.584h3.946   c3.563,0,5.673,0.645,7.454,2.632c1.398,1.584,2.056,3.813,2.056,6.714C445.368,201.729,444.655,203.932,443.367,205.543z    M440.654,193.619c-0.877-1.182-1.863-1.611-3.563-1.611h-2v13.615h2.082c3.344,0,4.687-2.176,4.687-6.392   C441.86,196.842,441.641,194.935,440.654,193.619z"/>
	<path fill="#3C3B36" d="M450.578,208.147v-18.584h3.234v18.584H450.578z"/>
	<path fill="#3C3B36" d="M459.842,208.147v-18.584h10.523l-0.411,2.524h-6.96v5.076h5.837v2.551h-5.782v5.801h7.591v2.632H459.842z"/>
	<path fill="#3C3B36" d="M484.7,208.147l-4.248-8.728c-1.014-2.068-2.055-4.404-2.411-5.506l-0.082,0.08   c0.137,1.559,0.164,3.519,0.191,5.156l0.109,8.997h-3.097v-18.584h3.563l4.604,9.077c0.877,1.719,1.699,3.921,1.945,4.78   l0.083-0.081c-0.083-0.939-0.274-3.598-0.274-5.29l-0.055-8.486h2.987v18.584H484.7z"/>
</g>
<polygon fill-rule="evenodd" fill="#3C3B36" points="102.7,59.119 37.277,59.119 37.277,42 102.7,42 102.7,59.119 "/>
<polygon fill-rule="evenodd" fill="#3C3B36" points="80.598,17.12 61.648,17.12 61.648,0 80.598,0 80.598,17.12 "/>
<polyline fill-rule="evenodd" fill="#3C3B36" points="0,227.102 0,209.989 58.247,209.989 58.247,227.102 "/>
<g>
	<path fill="#009DD3" d="M191.442,66.95h49.729v12.907l-30.398,41.051h31.377v12.904h-51.129v-12.904l30.399-41.051h-29.978V66.95z"/>
	<path fill="#009DD3" d="M294.405,133.813v-46.68c0-3.569-1.544-5.354-5.464-5.354c-4.202,0-11.627,2.472-17.79,5.63v46.404H254.06   V66.95h13.029l1.68,5.629c8.546-4.119,19.334-7.001,27.317-7.001c11.347,0,15.409,7.825,15.409,19.769v48.465H294.405z"/>
	<path fill="#009DD3" d="M348.062,135.188c-7.287,0-17.231-1.648-23.536-3.846l2.381-12.769c5.745,1.648,13.31,2.882,20.313,2.882   c7.564,0,8.685-1.644,8.685-6.727c0-4.116-0.839-6.177-11.905-8.785c-16.671-3.982-18.633-8.102-18.633-21.006   c0-13.454,6.024-19.358,25.494-19.358c6.306,0,14.569,0.825,20.454,2.335l-1.681,13.315c-5.183-0.961-13.45-1.922-18.773-1.922   c-7.423,0-8.686,1.648-8.686,5.767c0,5.354,0.422,5.767,9.668,8.102c19.052,4.943,20.872,7.415,20.872,21.143   C372.715,127.223,368.652,135.188,348.062,135.188z"/>
</g>
<g>
	<rect y="83.995" fill-rule="evenodd" fill="#3C3B36" width="131.651" height="17.118"/>
	<polygon fill-rule="evenodd" fill="#3C3B36" points="136.683,83.775 136.683,100.888 172.657,83.935 172.657,66.833  "/>
</g>
<g>
	<rect y="125.988" fill-rule="evenodd" fill="#009DD3" width="131.651" height="17.119"/>
	<polygon fill-rule="evenodd" fill="#009DD3" points="136.683,125.766 136.683,142.879 172.657,125.928 172.657,108.825  "/>
</g>
<g>
	<rect y="167.982" fill-rule="evenodd" fill="#3C3B36" width="131.651" height="17.125"/>
	<polygon fill-rule="evenodd" fill="#3C3B36" points="136.683,167.763 136.683,184.88 172.657,167.925 172.657,150.831  "/>
</g>
<g>
	<rect x="84.146" y="209.989" fill-rule="evenodd" fill="#3C3B36" width="47.506" height="17.112"/>
	<polygon fill-rule="evenodd" fill="#3C3B36" points="136.683,209.761 136.683,226.873 172.657,209.754 172.657,192.652  "/>
</g>
<g>
</g>
<g>
</g>
<g>
</g>
<g>
</g>
<g>
</g>
<g>
</g>
</svg>