<svg version="1.2" baseProfile="tiny" id="Ebene_1" xmlns="http://www.w3.org/2000/svg" xmlns:xlink="http://www.w3.org/1999/xlink" x="0px" y="0px" xml:space="preserve" viewBox="0 0 488.02 227.1"> 
		<path fill="#3C3B36" d="M201.543 171.602h-11.564v-2.256l7.399-12.059c.576-.939 1.261-1.826 1.261-1.826s-.932.107-2.055.107h-6.249l.712-2.551h11.126v2.336l-7.372 12.193c-.411.697-1.096 1.584-1.096 1.584s.794-.054 1.891-.054h6.742l-.795 2.526zm5.73 0v-18.584h10.523l-.411 2.524h-6.961v5.075h5.837v2.552h-5.783v5.801h7.591v2.632h-10.796zm24.858 0-4.248-8.729c-1.014-2.067-2.056-4.404-2.412-5.505l-.083.081c.137 1.557.165 3.518.192 5.156l.11 8.996h-3.097v-18.584h3.563l4.604 9.077c.877 1.719 1.699 3.921 1.946 4.78l.082-.08c-.082-.94-.274-3.6-.274-5.291l-.055-8.486h2.987v18.584h-3.315zm20.282-16.006h-4.769v16.006h-3.151v-16.006h-4.796v-2.578h13.127l-.411 2.578zm12.909 16.006-1.644-2.873c-1.315-2.283-2.192-3.572-3.234-4.593-.356-.349-.63-.537-1.233-.563v8.029h-3.097v-18.584h5.782c4.248 0 6.167 2.417 6.167 5.317 0 2.659-1.754 5.103-4.714 5.103.685.35 1.945 2.148 2.932 3.706l2.796 4.458h-3.755zm-4.384-16.086h-1.727v5.881h1.617c1.645 0 2.521-.215 3.097-.779.521-.51.85-1.289.85-2.256-.001-1.88-1.042-2.846-3.837-2.846zm18.939 16.408c-4.987 0-6.55-2.524-6.55-5.506v-13.4h3.179v12.488c0 2.846 1.042 3.786 3.371 3.786 2.302 0 3.426-1.315 3.426-3.786v-12.488h3.151v13.374c0 3.411-2.412 5.532-6.577 5.532zm27.9-.322-.877-11.522a60.97 60.97 0 0 1-.137-3.223c-.137.618-.384 1.8-.74 2.981l-3.452 11.763h-2.687l-3.151-11.252a43.083 43.083 0 0 1-.822-3.519c0 .618-.109 2.39-.191 3.545l-.822 11.226h-3.097l1.727-18.584h4.193l2.904 10.527c.438 1.558.604 2.605.713 3.169.082-.563.329-1.826.685-3.115l2.987-10.581h4.193l1.672 18.584h-3.098zm25.765-16.06h-6.495v5.049h5.29v2.497h-5.29v8.514h-3.151v-18.584h10.03l-.384 2.524zm10.607 16.382c-4.988 0-6.55-2.524-6.55-5.506v-13.4h3.179v12.488c0 2.846 1.042 3.786 3.371 3.786 2.302 0 3.426-1.315 3.426-3.786v-12.488h3.151v13.374c.001 3.411-2.412 5.532-6.577 5.532zm-2.548-19.658c-1.014 0-1.836-.859-1.836-1.88 0-1.048.822-1.88 1.836-1.88s1.836.832 1.836 1.88c0 1.02-.823 1.88-1.836 1.88zm5.727-.028c-1.014 0-1.836-.859-1.836-1.879 0-1.048.822-1.881 1.836-1.881s1.836.833 1.836 1.881c0 1.02-.822 1.879-1.836 1.879zm18.117 19.364-1.644-2.873c-1.315-2.283-2.192-3.572-3.234-4.593-.356-.349-.63-.537-1.233-.563v8.029h-3.097v-18.584h5.782c4.248 0 6.167 2.417 6.167 5.317 0 2.659-1.754 5.103-4.714 5.103.685.35 1.945 2.148 2.932 3.706l2.796 4.458h-3.755zm-4.384-16.086h-1.727v5.881h1.617c1.645 0 2.521-.215 3.097-.779.521-.51.85-1.289.85-2.256-.001-1.88-1.042-2.846-3.837-2.846zm-160.45 52.631-4.248-8.728c-1.014-2.068-2.056-4.404-2.412-5.506l-.083.08c.137 1.559.165 3.519.192 5.156l.11 8.997h-3.097v-18.584h3.563l4.604 9.077c.877 1.719 1.699 3.921 1.946 4.78l.082-.081c-.082-.939-.274-3.598-.274-5.29l-.055-8.486h2.987v18.584h-3.315zm9.348 0v-18.584h3.233v18.584h-3.233zm9.264 0v-18.584h10.523l-.411 2.524h-6.961v5.076h5.837v2.551h-5.783v5.801h7.591v2.632h-10.796zm26.776-2.604c-1.589 1.986-3.233 2.604-6.769 2.604h-4.686v-18.584h3.946c3.563 0 5.672.645 7.454 2.632 1.397 1.584 2.056 3.813 2.056 6.714 0 2.82-.713 5.023-2.001 6.634zm-2.713-11.924c-.877-1.182-1.863-1.611-3.563-1.611h-2v13.615h2.083c3.343 0 4.686-2.176 4.686-6.392 0-2.389-.219-4.296-1.206-5.612zm9.923 14.528v-18.584h10.523l-.411 2.524h-6.96v5.076h5.837v2.551h-5.782v5.801h7.591v2.632h-10.798zm24.529 0-1.644-2.874c-1.315-2.282-2.192-3.571-3.234-4.592-.356-.35-.63-.537-1.233-.564v8.03h-3.097v-18.584h5.782c4.248 0 6.167 2.417 6.167 5.317 0 2.658-1.754 5.103-4.714 5.103.685.349 1.945 2.148 2.932 3.706l2.796 4.458h-3.755zm-4.384-16.086h-1.727v5.882h1.617c1.645 0 2.521-.215 3.097-.778.521-.511.85-1.289.85-2.256-.001-1.882-1.042-2.848-3.837-2.848zm22.227 16.086h-9.701v-18.584h3.207v16.032h7.016l-.522 2.552zm14.857 0-1.535-4.888h-6.139l-1.534 4.888h-3.262l6.221-18.61h3.646l6.057 18.61h-3.454zm-4.496-15.522h-.027s-1.945 6.821-2.384 8.057h4.658c-.191-.403-2.109-7.332-2.247-8.057zm21.269 15.522-4.248-8.728c-1.014-2.068-2.055-4.404-2.411-5.506l-.082.08c.137 1.559.164 3.519.191 5.156l.109 8.997h-3.097v-18.584h3.563l4.604 9.077c.877 1.719 1.699 3.921 1.945 4.78l.083-.081c-.083-.939-.274-3.598-.274-5.29l-.055-8.486h2.987v18.584h-3.315zm20.803-2.604c-1.589 1.986-3.233 2.604-6.769 2.604h-4.687v-18.584h3.946c3.563 0 5.673.645 7.454 2.632 1.398 1.584 2.056 3.813 2.056 6.714.001 2.82-.712 5.023-2 6.634zm-2.713-11.924c-.877-1.182-1.863-1.611-3.563-1.611h-2v13.615h2.082c3.344 0 4.687-2.176 4.687-6.392 0-2.389-.22-4.296-1.206-5.612zm9.923 14.528v-18.584h10.523l-.411 2.524h-6.961v5.076h5.838v2.551h-5.782v5.801h7.591v2.632h-10.798zm14.636-7.922v-2.738h6.001v2.738h-6.001zm16.334 8.271c-2.165 0-4.357-.563-6.221-1.664l1.206-2.363c1.699.967 3.206 1.53 5.125 1.53 2.329 0 3.727-1.101 3.727-2.954 0-1.369-.877-2.229-2.822-2.766l-2.028-.564c-1.727-.483-2.96-1.182-3.672-2.229-.521-.752-.795-1.639-.795-2.713 0-3.276 2.631-5.506 6.44-5.506 2.164 0 4.329.618 6.001 1.773l-1.425 2.175c-1.754-1.021-2.96-1.423-4.467-1.423-1.863 0-3.097.993-3.097 2.523 0 1.155.657 1.746 2.521 2.283l2.248.645c2.74.779 4.658 2.498 4.658 5.291.001 3.089-2.548 5.962-7.399 5.962zm23.132-16.354h-4.769v16.006h-3.151v-16.006h-4.796v-2.578h13.127l-.411 2.578zm10.115 16.328c-4.987 0-6.55-2.524-6.55-5.505v-13.401h3.179v12.487c0 2.848 1.042 3.787 3.371 3.787 2.302 0 3.426-1.316 3.426-3.787v-12.487h3.151v13.374c.001 3.41-2.412 5.532-6.577 5.532zm23.926-2.927c-1.589 1.986-3.233 2.604-6.769 2.604h-4.687v-18.584h3.946c3.563 0 5.673.645 7.454 2.632 1.398 1.584 2.056 3.813 2.056 6.714.001 2.82-.712 5.023-2 6.634zm-2.713-11.924c-.877-1.182-1.863-1.611-3.563-1.611h-2v13.615h2.082c3.344 0 4.687-2.176 4.687-6.392 0-2.389-.219-4.296-1.206-5.612zm9.924 14.528v-18.584h3.234v18.584h-3.234zm9.264 0v-18.584h10.523l-.411 2.524h-6.96v5.076h5.837v2.551h-5.782v5.801h7.591v2.632h-10.798zm24.858 0-4.248-8.728c-1.014-2.068-2.055-4.404-2.411-5.506l-.082.08c.137 1.559.164 3.519.191 5.156l.109 8.997h-3.097v-18.584h3.563l4.604 9.077c.877 1.719 1.699 3.921 1.945 4.78l.083-.081c-.083-.939-.274-3.598-.274-5.29l-.055-8.486h2.987v18.584H484.7z"/>
		<path fill="#3C3B36" fill-rule="evenodd" d="M102.7 59.119H37.277V42H102.7v17.119zM80.598 17.12h-18.95V0h18.95v17.12zM0 227.102v-17.113h58.247v17.113"/>
		<path fill="#009DD3" d="M191.442 66.95h49.729v12.907l-30.398 41.051h31.377v12.904h-51.129v-12.904l30.399-41.051h-29.978V66.95zm102.963 66.863v-46.68c0-3.569-1.544-5.354-5.464-5.354-4.202 0-11.627 2.472-17.79 5.63v46.404H254.06V66.95h13.029l1.68 5.629c8.546-4.119 19.334-7.001 27.317-7.001 11.347 0 15.409 7.825 15.409 19.769v48.465h-17.09zm53.657 1.375c-7.287 0-17.231-1.648-23.536-3.846l2.381-12.769c5.745 1.648 13.31 2.882 20.313 2.882 7.564 0 8.685-1.644 8.685-6.727 0-4.116-.839-6.177-11.905-8.785-16.671-3.982-18.633-8.102-18.633-21.006 0-13.454 6.024-19.358 25.494-19.358 6.306 0 14.569.825 20.454 2.335l-1.681 13.315c-5.183-.961-13.45-1.922-18.773-1.922-7.423 0-8.686 1.648-8.686 5.767 0 5.354.422 5.767 9.668 8.102 19.052 4.943 20.872 7.415 20.872 21.143 0 12.904-4.063 20.869-24.653 20.869z"/>
		<path fill="#3C3B36" fill-rule="evenodd" d="M0 83.995h131.651v17.118H0zm136.683-.22v17.113l35.974-16.953V66.833z"/>
		<path fill="#009DD3" fill-rule="evenodd" d="M0 125.988h131.651v17.119H0zm136.683-.222v17.113l35.974-16.951v-17.103z"/>
		<path fill="#3C3B36" fill-rule="evenodd" d="M0 167.982h131.651v17.125H0zm136.683-.219v17.117l35.974-16.955v-17.094zm-52.537 42.226h47.506v17.112H84.146zm52.537-.228v17.112l35.974-17.119v-17.102z"/>
	</svg>